<mxfile host="app.diagrams.net" modified="2024-04-13T09:48:51.899Z" agent="Mozilla/5.0 (Windows NT 10.0; Win64; x64) AppleWebKit/537.36 (KHTML, like Gecko) Chrome/109.0.0.0 Safari/537.36 SLBrowser/9.0.3.1311 SLBChan/11" etag="c5bpGCitnY41Td0Vp7o9" version="24.2.2" type="github">
  <diagram name="Page-1" id="2YBvvXClWsGukQMizWep">
    <mxGraphModel dx="1088" dy="461" grid="1" gridSize="10" guides="1" tooltips="1" connect="1" arrows="1" fold="1" page="1" pageScale="1" pageWidth="850" pageHeight="1100" math="0" shadow="0">
      <root>
        <mxCell id="0" />
        <mxCell id="1" parent="0" />
        <mxCell id="brgdM_ip_KjS1nYenWTX-2" value=":用户界面" style="shape=umlLifeline;perimeter=lifelinePerimeter;whiteSpace=wrap;html=1;container=1;dropTarget=0;collapsible=0;recursiveResize=0;outlineConnect=0;portConstraint=eastwest;newEdgeStyle={&quot;curved&quot;:0,&quot;rounded&quot;:0};" vertex="1" parent="1">
          <mxGeometry x="180" y="60" width="100" height="740" as="geometry" />
        </mxCell>
        <mxCell id="brgdM_ip_KjS1nYenWTX-30" value="" style="html=1;points=[[0,0,0,0,5],[0,1,0,0,-5],[1,0,0,0,5],[1,1,0,0,-5]];perimeter=orthogonalPerimeter;outlineConnect=0;targetShapes=umlLifeline;portConstraint=eastwest;newEdgeStyle={&quot;curved&quot;:0,&quot;rounded&quot;:0};" vertex="1" parent="brgdM_ip_KjS1nYenWTX-2">
          <mxGeometry x="45" y="70" width="10" height="130" as="geometry" />
        </mxCell>
        <mxCell id="brgdM_ip_KjS1nYenWTX-42" value="" style="html=1;points=[[0,0,0,0,5],[0,1,0,0,-5],[1,0,0,0,5],[1,1,0,0,-5]];perimeter=orthogonalPerimeter;outlineConnect=0;targetShapes=umlLifeline;portConstraint=eastwest;newEdgeStyle={&quot;curved&quot;:0,&quot;rounded&quot;:0};" vertex="1" parent="brgdM_ip_KjS1nYenWTX-2">
          <mxGeometry x="46" y="260" width="10" height="160" as="geometry" />
        </mxCell>
        <mxCell id="brgdM_ip_KjS1nYenWTX-62" value="" style="html=1;points=[[0,0,0,0,5],[0,1,0,0,-5],[1,0,0,0,5],[1,1,0,0,-5]];perimeter=orthogonalPerimeter;outlineConnect=0;targetShapes=umlLifeline;portConstraint=eastwest;newEdgeStyle={&quot;curved&quot;:0,&quot;rounded&quot;:0};" vertex="1" parent="brgdM_ip_KjS1nYenWTX-2">
          <mxGeometry x="46" y="470" width="10" height="170" as="geometry" />
        </mxCell>
        <mxCell id="brgdM_ip_KjS1nYenWTX-6" value=":服务器" style="shape=umlLifeline;perimeter=lifelinePerimeter;whiteSpace=wrap;html=1;container=1;dropTarget=0;collapsible=0;recursiveResize=0;outlineConnect=0;portConstraint=eastwest;newEdgeStyle={&quot;curved&quot;:0,&quot;rounded&quot;:0};" vertex="1" parent="1">
          <mxGeometry x="360" y="60" width="100" height="740" as="geometry" />
        </mxCell>
        <mxCell id="brgdM_ip_KjS1nYenWTX-33" value="" style="html=1;points=[[0,0,0,0,5],[0,1,0,0,-5],[1,0,0,0,5],[1,1,0,0,-5]];perimeter=orthogonalPerimeter;outlineConnect=0;targetShapes=umlLifeline;portConstraint=eastwest;newEdgeStyle={&quot;curved&quot;:0,&quot;rounded&quot;:0};" vertex="1" parent="brgdM_ip_KjS1nYenWTX-6">
          <mxGeometry x="45" y="75" width="10" height="125" as="geometry" />
        </mxCell>
        <mxCell id="brgdM_ip_KjS1nYenWTX-43" value="" style="html=1;points=[[0,0,0,0,5],[0,1,0,0,-5],[1,0,0,0,5],[1,1,0,0,-5]];perimeter=orthogonalPerimeter;outlineConnect=0;targetShapes=umlLifeline;portConstraint=eastwest;newEdgeStyle={&quot;curved&quot;:0,&quot;rounded&quot;:0};" vertex="1" parent="brgdM_ip_KjS1nYenWTX-6">
          <mxGeometry x="45" y="260" width="10" height="160" as="geometry" />
        </mxCell>
        <mxCell id="brgdM_ip_KjS1nYenWTX-63" value="" style="html=1;points=[[0,0,0,0,5],[0,1,0,0,-5],[1,0,0,0,5],[1,1,0,0,-5]];perimeter=orthogonalPerimeter;outlineConnect=0;targetShapes=umlLifeline;portConstraint=eastwest;newEdgeStyle={&quot;curved&quot;:0,&quot;rounded&quot;:0};" vertex="1" parent="brgdM_ip_KjS1nYenWTX-6">
          <mxGeometry x="45" y="470" width="10" height="240" as="geometry" />
        </mxCell>
        <mxCell id="brgdM_ip_KjS1nYenWTX-74" style="edgeStyle=orthogonalEdgeStyle;rounded=0;orthogonalLoop=1;jettySize=auto;html=1;curved=0;" edge="1" parent="brgdM_ip_KjS1nYenWTX-6" source="brgdM_ip_KjS1nYenWTX-63" target="brgdM_ip_KjS1nYenWTX-63">
          <mxGeometry relative="1" as="geometry">
            <mxPoint x="120" y="650" as="targetPoint" />
            <Array as="points">
              <mxPoint x="110" y="600" />
            </Array>
          </mxGeometry>
        </mxCell>
        <mxCell id="brgdM_ip_KjS1nYenWTX-7" value="" style="group" vertex="1" connectable="0" parent="1">
          <mxGeometry x="110" y="50" width="50" height="750" as="geometry" />
        </mxCell>
        <mxCell id="brgdM_ip_KjS1nYenWTX-4" value="" style="shape=umlLifeline;perimeter=lifelinePerimeter;whiteSpace=wrap;html=1;container=1;dropTarget=0;collapsible=0;recursiveResize=0;outlineConnect=0;portConstraint=eastwest;newEdgeStyle={&quot;curved&quot;:0,&quot;rounded&quot;:0};participant=umlActor;" vertex="1" parent="brgdM_ip_KjS1nYenWTX-7">
          <mxGeometry width="20" height="750" as="geometry" />
        </mxCell>
        <mxCell id="brgdM_ip_KjS1nYenWTX-41" value="" style="html=1;points=[[0,0,0,0,5],[0,1,0,0,-5],[1,0,0,0,5],[1,1,0,0,-5]];perimeter=orthogonalPerimeter;outlineConnect=0;targetShapes=umlLifeline;portConstraint=eastwest;newEdgeStyle={&quot;curved&quot;:0,&quot;rounded&quot;:0};" vertex="1" parent="brgdM_ip_KjS1nYenWTX-4">
          <mxGeometry x="5" y="270" width="10" height="160" as="geometry" />
        </mxCell>
        <mxCell id="brgdM_ip_KjS1nYenWTX-61" value="" style="html=1;points=[[0,0,0,0,5],[0,1,0,0,-5],[1,0,0,0,5],[1,1,0,0,-5]];perimeter=orthogonalPerimeter;outlineConnect=0;targetShapes=umlLifeline;portConstraint=eastwest;newEdgeStyle={&quot;curved&quot;:0,&quot;rounded&quot;:0};" vertex="1" parent="brgdM_ip_KjS1nYenWTX-4">
          <mxGeometry x="5" y="480" width="10" height="170" as="geometry" />
        </mxCell>
        <mxCell id="brgdM_ip_KjS1nYenWTX-5" value=":用户" style="text;html=1;align=center;verticalAlign=middle;resizable=0;points=[];autosize=1;strokeColor=none;fillColor=none;" vertex="1" parent="brgdM_ip_KjS1nYenWTX-7">
          <mxGeometry y="6" width="50" height="30" as="geometry" />
        </mxCell>
        <mxCell id="brgdM_ip_KjS1nYenWTX-23" value="" style="html=1;points=[[0,0,0,0,5],[0,1,0,0,-5],[1,0,0,0,5],[1,1,0,0,-5]];perimeter=orthogonalPerimeter;outlineConnect=0;targetShapes=umlLifeline;portConstraint=eastwest;newEdgeStyle={&quot;curved&quot;:0,&quot;rounded&quot;:0};" vertex="1" parent="brgdM_ip_KjS1nYenWTX-7">
          <mxGeometry x="5" y="80" width="10" height="130" as="geometry" />
        </mxCell>
        <mxCell id="brgdM_ip_KjS1nYenWTX-19" value=":球友" style="shape=umlLifeline;perimeter=lifelinePerimeter;whiteSpace=wrap;html=1;container=1;dropTarget=0;collapsible=0;recursiveResize=0;outlineConnect=0;portConstraint=eastwest;newEdgeStyle={&quot;curved&quot;:0,&quot;rounded&quot;:0};" vertex="1" parent="1">
          <mxGeometry x="520" y="60" width="100" height="740" as="geometry" />
        </mxCell>
        <mxCell id="brgdM_ip_KjS1nYenWTX-64" value="" style="html=1;points=[[0,0,0,0,5],[0,1,0,0,-5],[1,0,0,0,5],[1,1,0,0,-5]];perimeter=orthogonalPerimeter;outlineConnect=0;targetShapes=umlLifeline;portConstraint=eastwest;newEdgeStyle={&quot;curved&quot;:0,&quot;rounded&quot;:0};" vertex="1" parent="brgdM_ip_KjS1nYenWTX-19">
          <mxGeometry x="45" y="470" width="10" height="190" as="geometry" />
        </mxCell>
        <mxCell id="brgdM_ip_KjS1nYenWTX-20" value=":教练" style="shape=umlLifeline;perimeter=lifelinePerimeter;whiteSpace=wrap;html=1;container=1;dropTarget=0;collapsible=0;recursiveResize=0;outlineConnect=0;portConstraint=eastwest;newEdgeStyle={&quot;curved&quot;:0,&quot;rounded&quot;:0};" vertex="1" parent="1">
          <mxGeometry x="680" y="60" width="100" height="740" as="geometry" />
        </mxCell>
        <mxCell id="brgdM_ip_KjS1nYenWTX-21" value=":球拍厂商" style="shape=umlLifeline;perimeter=lifelinePerimeter;whiteSpace=wrap;html=1;container=1;dropTarget=0;collapsible=0;recursiveResize=0;outlineConnect=0;portConstraint=eastwest;newEdgeStyle={&quot;curved&quot;:0,&quot;rounded&quot;:0};" vertex="1" parent="1">
          <mxGeometry x="830" y="60" width="100" height="740" as="geometry" />
        </mxCell>
        <mxCell id="brgdM_ip_KjS1nYenWTX-22" value=":乒乓论坛" style="shape=umlLifeline;perimeter=lifelinePerimeter;whiteSpace=wrap;html=1;container=1;dropTarget=0;collapsible=0;recursiveResize=0;outlineConnect=0;portConstraint=eastwest;newEdgeStyle={&quot;curved&quot;:0,&quot;rounded&quot;:0};" vertex="1" parent="1">
          <mxGeometry x="970" y="60" width="100" height="740" as="geometry" />
        </mxCell>
        <mxCell id="brgdM_ip_KjS1nYenWTX-27" value="登录" style="text;html=1;align=center;verticalAlign=middle;resizable=0;points=[];autosize=1;strokeColor=none;fillColor=none;" vertex="1" parent="1">
          <mxGeometry x="150" y="190" width="50" height="30" as="geometry" />
        </mxCell>
        <mxCell id="brgdM_ip_KjS1nYenWTX-29" value="注册" style="text;html=1;align=center;verticalAlign=middle;resizable=0;points=[];autosize=1;strokeColor=none;fillColor=none;" vertex="1" parent="1">
          <mxGeometry x="150" y="138" width="50" height="30" as="geometry" />
        </mxCell>
        <mxCell id="brgdM_ip_KjS1nYenWTX-35" value="新用户注册信息发送给&lt;div&gt;服务器，保存到数据库&lt;/div&gt;" style="text;html=1;align=center;verticalAlign=middle;resizable=0;points=[];autosize=1;strokeColor=none;fillColor=none;" vertex="1" parent="1">
          <mxGeometry x="240" y="120" width="140" height="40" as="geometry" />
        </mxCell>
        <mxCell id="brgdM_ip_KjS1nYenWTX-37" value="校验登录信息,&lt;div&gt;并修改用户在线状态，&lt;/div&gt;&lt;div&gt;建立websocket连接&lt;/div&gt;" style="text;html=1;align=center;verticalAlign=middle;resizable=0;points=[];autosize=1;strokeColor=none;fillColor=none;" vertex="1" parent="1">
          <mxGeometry x="246" y="168" width="140" height="60" as="geometry" />
        </mxCell>
        <mxCell id="brgdM_ip_KjS1nYenWTX-39" value="" style="endArrow=open;endSize=12;dashed=1;html=1;rounded=0;" edge="1" parent="1" source="brgdM_ip_KjS1nYenWTX-33" target="brgdM_ip_KjS1nYenWTX-2">
          <mxGeometry width="160" relative="1" as="geometry">
            <mxPoint x="390" y="240" as="sourcePoint" />
            <mxPoint x="232.7500000000001" y="239.99999999999994" as="targetPoint" />
            <Array as="points">
              <mxPoint x="320" y="240" />
            </Array>
          </mxGeometry>
        </mxCell>
        <mxCell id="brgdM_ip_KjS1nYenWTX-40" value="返回登录结果及token" style="text;html=1;align=center;verticalAlign=middle;resizable=0;points=[];autosize=1;strokeColor=none;fillColor=none;" vertex="1" parent="1">
          <mxGeometry x="245" y="235" width="140" height="30" as="geometry" />
        </mxCell>
        <mxCell id="brgdM_ip_KjS1nYenWTX-45" value="填写个人信息&lt;div&gt;及默认筛选条件&lt;/div&gt;" style="text;html=1;align=center;verticalAlign=middle;resizable=0;points=[];autosize=1;strokeColor=none;fillColor=none;" vertex="1" parent="1">
          <mxGeometry x="119" y="321" width="110" height="40" as="geometry" />
        </mxCell>
        <mxCell id="brgdM_ip_KjS1nYenWTX-46" style="edgeStyle=orthogonalEdgeStyle;rounded=0;orthogonalLoop=1;jettySize=auto;html=1;curved=0;" edge="1" parent="1" source="brgdM_ip_KjS1nYenWTX-42" target="brgdM_ip_KjS1nYenWTX-43">
          <mxGeometry relative="1" as="geometry">
            <mxPoint x="380" y="350" as="targetPoint" />
            <Array as="points">
              <mxPoint x="320" y="340" />
              <mxPoint x="320" y="340" />
            </Array>
          </mxGeometry>
        </mxCell>
        <mxCell id="brgdM_ip_KjS1nYenWTX-47" value="" style="edgeStyle=orthogonalEdgeStyle;rounded=0;orthogonalLoop=1;jettySize=auto;html=1;curved=0;" edge="1" parent="1" source="brgdM_ip_KjS1nYenWTX-23" target="brgdM_ip_KjS1nYenWTX-30">
          <mxGeometry relative="1" as="geometry">
            <Array as="points" />
          </mxGeometry>
        </mxCell>
        <mxCell id="brgdM_ip_KjS1nYenWTX-48" style="edgeStyle=orthogonalEdgeStyle;rounded=0;orthogonalLoop=1;jettySize=auto;html=1;curved=0;" edge="1" parent="1">
          <mxGeometry relative="1" as="geometry">
            <mxPoint x="125" y="143" as="sourcePoint" />
            <mxPoint x="225" y="143" as="targetPoint" />
            <Array as="points">
              <mxPoint x="180" y="143" />
              <mxPoint x="180" y="143" />
            </Array>
          </mxGeometry>
        </mxCell>
        <mxCell id="brgdM_ip_KjS1nYenWTX-49" style="edgeStyle=orthogonalEdgeStyle;rounded=0;orthogonalLoop=1;jettySize=auto;html=1;curved=0;" edge="1" parent="1" source="brgdM_ip_KjS1nYenWTX-30" target="brgdM_ip_KjS1nYenWTX-33">
          <mxGeometry relative="1" as="geometry">
            <Array as="points">
              <mxPoint x="320" y="140" />
              <mxPoint x="320" y="140" />
            </Array>
          </mxGeometry>
        </mxCell>
        <mxCell id="brgdM_ip_KjS1nYenWTX-50" style="edgeStyle=orthogonalEdgeStyle;rounded=0;orthogonalLoop=1;jettySize=auto;html=1;curved=0;" edge="1" parent="1" source="brgdM_ip_KjS1nYenWTX-30" target="brgdM_ip_KjS1nYenWTX-33">
          <mxGeometry relative="1" as="geometry">
            <Array as="points">
              <mxPoint x="320" y="190" />
              <mxPoint x="320" y="190" />
            </Array>
          </mxGeometry>
        </mxCell>
        <mxCell id="brgdM_ip_KjS1nYenWTX-51" style="edgeStyle=orthogonalEdgeStyle;rounded=0;orthogonalLoop=1;jettySize=auto;html=1;curved=0;" edge="1" parent="1" source="brgdM_ip_KjS1nYenWTX-41" target="brgdM_ip_KjS1nYenWTX-42">
          <mxGeometry relative="1" as="geometry">
            <Array as="points">
              <mxPoint x="180" y="340" />
              <mxPoint x="180" y="340" />
            </Array>
          </mxGeometry>
        </mxCell>
        <mxCell id="brgdM_ip_KjS1nYenWTX-52" value="保存到服务器" style="text;html=1;align=center;verticalAlign=middle;resizable=0;points=[];autosize=1;strokeColor=none;fillColor=none;" vertex="1" parent="1">
          <mxGeometry x="270" y="318" width="100" height="30" as="geometry" />
        </mxCell>
        <mxCell id="brgdM_ip_KjS1nYenWTX-53" style="edgeStyle=orthogonalEdgeStyle;rounded=0;orthogonalLoop=1;jettySize=auto;html=1;curved=0;" edge="1" parent="1" source="brgdM_ip_KjS1nYenWTX-41" target="brgdM_ip_KjS1nYenWTX-42">
          <mxGeometry relative="1" as="geometry" />
        </mxCell>
        <mxCell id="brgdM_ip_KjS1nYenWTX-54" value="查询附近球友，&lt;div&gt;并添加筛选条件&lt;/div&gt;" style="text;html=1;align=center;verticalAlign=middle;resizable=0;points=[];autosize=1;strokeColor=none;fillColor=none;" vertex="1" parent="1">
          <mxGeometry x="119" y="380" width="110" height="40" as="geometry" />
        </mxCell>
        <mxCell id="brgdM_ip_KjS1nYenWTX-55" style="edgeStyle=orthogonalEdgeStyle;rounded=0;orthogonalLoop=1;jettySize=auto;html=1;curved=0;" edge="1" parent="1" source="brgdM_ip_KjS1nYenWTX-42" target="brgdM_ip_KjS1nYenWTX-6">
          <mxGeometry relative="1" as="geometry">
            <Array as="points">
              <mxPoint x="360" y="400" />
              <mxPoint x="360" y="400" />
            </Array>
          </mxGeometry>
        </mxCell>
        <mxCell id="brgdM_ip_KjS1nYenWTX-56" value="getNearbyPals()" style="text;html=1;align=center;verticalAlign=middle;resizable=0;points=[];autosize=1;strokeColor=none;fillColor=none;" vertex="1" parent="1">
          <mxGeometry x="258" y="375" width="110" height="30" as="geometry" />
        </mxCell>
        <mxCell id="brgdM_ip_KjS1nYenWTX-57" value="" style="endArrow=open;endSize=12;dashed=1;html=1;rounded=0;" edge="1" parent="1">
          <mxGeometry width="160" relative="1" as="geometry">
            <mxPoint x="406.75" y="440.00000000000006" as="sourcePoint" />
            <mxPoint x="233.25" y="440.00000000000006" as="targetPoint" />
            <Array as="points">
              <mxPoint x="332.25" y="440.00000000000006" />
            </Array>
          </mxGeometry>
        </mxCell>
        <mxCell id="brgdM_ip_KjS1nYenWTX-58" value="使用redis找到附近球友" style="text;html=1;align=center;verticalAlign=middle;resizable=0;points=[];autosize=1;strokeColor=none;fillColor=none;" vertex="1" parent="1">
          <mxGeometry x="242" y="437" width="150" height="30" as="geometry" />
        </mxCell>
        <mxCell id="brgdM_ip_KjS1nYenWTX-59" value="" style="endArrow=open;endSize=12;dashed=1;html=1;rounded=0;" edge="1" parent="1" source="brgdM_ip_KjS1nYenWTX-2" target="brgdM_ip_KjS1nYenWTX-41">
          <mxGeometry width="160" relative="1" as="geometry">
            <mxPoint x="350" y="510" as="sourcePoint" />
            <mxPoint x="140" y="450" as="targetPoint" />
            <Array as="points">
              <mxPoint x="180" y="450" />
            </Array>
          </mxGeometry>
        </mxCell>
        <mxCell id="brgdM_ip_KjS1nYenWTX-60" value="显示附近球友列表" style="text;html=1;align=center;verticalAlign=middle;resizable=0;points=[];autosize=1;strokeColor=none;fillColor=none;" vertex="1" parent="1">
          <mxGeometry x="115" y="448" width="120" height="30" as="geometry" />
        </mxCell>
        <mxCell id="brgdM_ip_KjS1nYenWTX-66" style="edgeStyle=orthogonalEdgeStyle;rounded=0;orthogonalLoop=1;jettySize=auto;html=1;curved=0;" edge="1" parent="1" source="brgdM_ip_KjS1nYenWTX-61" target="brgdM_ip_KjS1nYenWTX-62">
          <mxGeometry relative="1" as="geometry">
            <Array as="points">
              <mxPoint x="180" y="570" />
              <mxPoint x="180" y="570" />
            </Array>
          </mxGeometry>
        </mxCell>
        <mxCell id="brgdM_ip_KjS1nYenWTX-67" value="发送约球邀请" style="text;html=1;align=center;verticalAlign=middle;resizable=0;points=[];autosize=1;strokeColor=none;fillColor=none;" vertex="1" parent="1">
          <mxGeometry x="120" y="543" width="100" height="30" as="geometry" />
        </mxCell>
        <mxCell id="brgdM_ip_KjS1nYenWTX-68" style="edgeStyle=orthogonalEdgeStyle;rounded=0;orthogonalLoop=1;jettySize=auto;html=1;curved=0;" edge="1" parent="1" source="brgdM_ip_KjS1nYenWTX-62" target="brgdM_ip_KjS1nYenWTX-63">
          <mxGeometry relative="1" as="geometry">
            <Array as="points">
              <mxPoint x="320" y="570" />
              <mxPoint x="320" y="570" />
            </Array>
          </mxGeometry>
        </mxCell>
        <mxCell id="brgdM_ip_KjS1nYenWTX-70" value="检查球友在线状态" style="text;html=1;align=center;verticalAlign=middle;resizable=0;points=[];autosize=1;strokeColor=none;fillColor=none;" vertex="1" parent="1">
          <mxGeometry x="253" y="546" width="120" height="30" as="geometry" />
        </mxCell>
        <mxCell id="brgdM_ip_KjS1nYenWTX-72" style="edgeStyle=orthogonalEdgeStyle;rounded=0;orthogonalLoop=1;jettySize=auto;html=1;curved=0;" edge="1" parent="1">
          <mxGeometry relative="1" as="geometry">
            <mxPoint x="415" y="579" as="sourcePoint" />
            <mxPoint x="565" y="579" as="targetPoint" />
            <Array as="points">
              <mxPoint x="510" y="579" />
              <mxPoint x="510" y="579" />
            </Array>
          </mxGeometry>
        </mxCell>
        <mxCell id="brgdM_ip_KjS1nYenWTX-73" value="通过websocket&lt;div&gt;发送约球申请&lt;/div&gt;" style="text;html=1;align=center;verticalAlign=middle;resizable=0;points=[];autosize=1;strokeColor=none;fillColor=none;" vertex="1" parent="1">
          <mxGeometry x="439" y="560" width="100" height="40" as="geometry" />
        </mxCell>
        <mxCell id="brgdM_ip_KjS1nYenWTX-75" value="通过redis消息队列&lt;div&gt;缓存约球请求，&lt;/div&gt;&lt;div&gt;待球友上线后再发送&lt;/div&gt;" style="text;html=1;align=center;verticalAlign=middle;resizable=0;points=[];autosize=1;strokeColor=none;fillColor=none;" vertex="1" parent="1">
          <mxGeometry x="403" y="656" width="130" height="60" as="geometry" />
        </mxCell>
        <mxCell id="brgdM_ip_KjS1nYenWTX-76" value="alt" style="shape=umlFrame;whiteSpace=wrap;html=1;pointerEvents=0;" vertex="1" parent="1">
          <mxGeometry x="370" y="520" width="240" height="200" as="geometry" />
        </mxCell>
        <mxCell id="brgdM_ip_KjS1nYenWTX-77" value="" style="endArrow=none;dashed=1;html=1;rounded=0;entryX=1.004;entryY=0.501;entryDx=0;entryDy=0;entryPerimeter=0;exitX=-0.003;exitY=0.501;exitDx=0;exitDy=0;exitPerimeter=0;" edge="1" parent="1" source="brgdM_ip_KjS1nYenWTX-76" target="brgdM_ip_KjS1nYenWTX-76">
          <mxGeometry width="50" height="50" relative="1" as="geometry">
            <mxPoint x="380" y="670" as="sourcePoint" />
            <mxPoint x="430" y="620" as="targetPoint" />
          </mxGeometry>
        </mxCell>
        <mxCell id="brgdM_ip_KjS1nYenWTX-78" value="if(目标球友在线)" style="text;html=1;align=center;verticalAlign=middle;resizable=0;points=[];autosize=1;strokeColor=none;fillColor=none;" vertex="1" parent="1">
          <mxGeometry x="423" y="530" width="110" height="30" as="geometry" />
        </mxCell>
        <mxCell id="brgdM_ip_KjS1nYenWTX-79" value="else" style="text;html=1;align=center;verticalAlign=middle;resizable=0;points=[];autosize=1;strokeColor=none;fillColor=none;" vertex="1" parent="1">
          <mxGeometry x="470" y="618" width="50" height="30" as="geometry" />
        </mxCell>
      </root>
    </mxGraphModel>
  </diagram>
</mxfile>
